<svg width="25" height="24" viewBox="0 0 25 24" fill="none" xmlns="http://www.w3.org/2000/svg">
<path fill-rule="evenodd" clip-rule="evenodd" d="M8.52443 4.54102L8.66943 4.54692C9.57813 4.62122 10.2974 5.38782 10.2974 6.31402V17.685C10.2974 18.661 9.50043 19.459 8.52443 19.459C7.54743 19.459 6.75043 18.661 6.75043 17.685V6.31402C6.75043 5.33902 7.54743 4.54102 8.52443 4.54102ZM16.4756 4.54102L16.6206 4.54692C17.5294 4.62122 18.2496 5.38782 18.2496 6.31402V17.685C18.2496 18.661 17.4516 19.459 16.4756 19.459C15.4996 19.459 14.7026 18.661 14.7026 17.685V6.31402C14.7026 5.33902 15.4996 4.54102 16.4756 4.54102Z" fill="#D5D5D5"/>
</svg>
