<svg width="54" height="54" viewBox="0 0 54 54" fill="none" xmlns="http://www.w3.org/2000/svg">
<g clip-path="url(#clip0_1091_2818)">
<path d="M27 0C49.1783 1.99365e-05 54 8.91968 54 27C54 46.2857 45.8036 54 27 54C10.3661 54 -0.000144613 47.7321 1.51307e-09 27C0.000117802 10.125 4.82155 1.31764e-05 27 0ZM27.2158 10.9688C26.5221 10.9687 25.838 11.1338 25.2207 11.4502C24.6035 11.7667 24.07 12.2259 23.665 12.7891C23.2601 13.3524 22.995 14.0044 22.8916 14.6904C22.7883 15.3765 22.8492 16.0777 23.0703 16.7354L24.752 22.7129L20.4326 18.251C19.6621 17.4234 18.6007 16.9267 17.4717 16.8643C16.3427 16.8019 15.2329 17.1784 14.376 17.916C13.5191 18.6536 12.9814 19.6947 12.875 20.8203C12.7687 21.9461 13.1029 23.07 13.8066 23.9551C14.4639 24.7315 15.3364 25.2233 16.2607 25.4121L22.3672 26.9941L16.2568 28.5645C15.576 28.7023 14.9373 29.0001 14.3945 29.4336C13.8517 29.8671 13.4198 30.424 13.1348 31.0576C12.8497 31.6912 12.7201 32.3843 12.7559 33.0781C12.7917 33.7718 12.9923 34.447 13.3408 35.0479C13.6894 35.6487 14.1762 36.1578 14.7607 36.5332C15.3452 36.9086 16.0107 37.1399 16.7021 37.207C17.3937 37.2741 18.0915 37.175 18.7373 36.9189C19.383 36.6629 19.9584 36.257 20.416 35.7344L24.7578 31.2646L23.0703 37.2627C22.8492 37.9203 22.7883 38.6215 22.8916 39.3076C22.9949 39.9935 23.2602 40.6447 23.665 41.208C24.07 41.7714 24.6033 42.2313 25.2207 42.5479C25.838 42.8643 26.5221 43.0293 27.2158 43.0293C27.9096 43.0292 28.5936 42.8644 29.2109 42.5479C29.8283 42.2313 30.3616 41.7714 30.7666 41.208C31.1713 40.6448 31.4367 39.9934 31.54 39.3076C31.6433 38.6215 31.5814 37.9204 31.3604 37.2627L29.6787 31.2852L33.998 35.7471C34.6179 36.4578 35.4773 36.9743 36.4766 37.1631C37.3647 37.3325 38.2837 37.2224 39.1064 36.8477C39.9293 36.4729 40.6152 35.8515 41.0703 35.0703C41.5254 34.2891 41.7272 33.3859 41.6475 32.4854C41.5676 31.5846 41.2106 30.7301 40.625 30.041C39.993 29.2943 39.1281 28.7812 38.1699 28.584L32.0625 27.0039L38.1738 25.4336C38.8548 25.2958 39.4932 24.997 40.0361 24.5635C40.5788 24.13 41.0109 23.5738 41.2959 22.9404C41.5809 22.3068 41.7106 21.6138 41.6748 20.9199C41.639 20.2262 41.4384 19.551 41.0898 18.9502C40.7412 18.3493 40.2545 17.8403 39.6699 17.4648C39.0854 17.0894 38.42 16.8581 37.7285 16.791C37.037 16.7239 36.3392 16.823 35.6934 17.0791C35.0477 17.3352 34.4722 17.7411 34.0146 18.2637L29.6738 22.7314L31.3604 16.7354C31.5815 16.0777 31.6433 15.3765 31.54 14.6904C31.4367 14.0044 31.1715 13.3524 30.7666 12.7891C30.3617 12.2257 29.8283 11.7667 29.2109 11.4502C28.5936 11.1337 27.9096 10.9688 27.2158 10.9688ZM27.2158 23.7246C28.0851 23.7247 28.9185 24.0709 29.5332 24.6855C30.148 25.3004 30.4941 26.1344 30.4941 27.0039C30.494 27.8732 30.1479 28.7066 29.5332 29.3213C28.9185 29.936 28.0852 30.2821 27.2158 30.2822C26.3463 30.2822 25.5123 29.9361 24.8975 29.3213C24.2828 28.7066 23.9376 27.8732 23.9375 27.0039C23.9375 26.1344 24.2827 25.3004 24.8975 24.6855C25.5123 24.0707 26.3463 23.7246 27.2158 23.7246Z" fill="white"/>
</g>
<defs>
<clipPath id="clip0_1091_2818">
<rect width="54" height="54" rx="27" fill="white"/>
</clipPath>
</defs>
</svg>
