<svg width="24" height="24" viewBox="0 0 24 24" fill="none" xmlns="http://www.w3.org/2000/svg">
<path fill-rule="evenodd" clip-rule="evenodd" d="M11.9994 13.1688C10.3434 13.1688 8.99942 11.8258 8.99942 10.1668C8.99942 8.51179 10.3434 7.16879 11.9994 7.16879C13.6564 7.16879 14.9994 8.51179 14.9994 10.1668C14.9994 11.8258 13.6564 13.1688 11.9994 13.1688ZM11.9984 3.02679C8.02042 3.02679 4.78442 6.26279 4.78442 10.2398C4.78442 12.9948 6.87942 15.3148 6.96142 15.4028L10.8604 20.4498C11.4594 21.1478 12.5394 21.1478 13.1384 20.4488L17.0284 15.4118C17.1184 15.3148 19.2154 12.9948 19.2154 10.2398C19.2154 6.26279 15.9784 3.02679 11.9984 3.02679Z" stroke="white" stroke-width="1.5" stroke-linecap="round" stroke-linejoin="round"/>
</svg>
