<svg width="54" height="54" viewBox="0 0 54 54" fill="none" xmlns="http://www.w3.org/2000/svg">
<g clip-path="url(#clip0_1113_1525)">
<path d="M27 0C49.1783 1.99365e-05 54 8.91968 54 27C54 46.2857 45.8036 54 27 54C10.3661 54 -0.000144615 47.7321 0 27C0.0001178 10.125 4.82155 1.31764e-05 27 0ZM15.625 14.75C13.2187 14.75 11.25 16.7188 11.25 19.125V34.875C11.25 37.2812 13.2187 39.25 15.625 39.25H36.3975C39.901 39.25 42.7412 36.4098 42.7412 32.9062V21.083C42.7411 20.1329 41.875 19.3856 40.8916 19.585C40.1743 19.7302 39.6789 20.3935 39.6787 21.123V32.9062C39.6787 33.0059 39.6738 33.1038 39.665 33.1982C39.5215 34.8239 37.0628 34.6563 37.0625 33.0273V19.125C37.0625 16.7188 35.0938 14.75 32.6875 14.75H15.625ZM20.8643 25.1328C21.3473 25.1328 21.7393 25.5248 21.7393 26.0078V30.3828C21.7392 30.864 21.3472 31.2578 20.8643 31.2578H16.4893C16.0064 31.2577 15.6143 30.864 15.6143 30.3828V26.0078C15.6143 25.5249 16.0064 25.1329 16.4893 25.1328H20.8643ZM31.2666 25.2695C31.9928 25.2696 32.5791 25.8558 32.5791 26.582C32.5789 27.3064 31.9927 27.8945 31.2666 27.8945H25.9814C25.2553 27.8945 24.6691 27.3064 24.6689 26.582C24.6689 25.8558 25.2552 25.2696 25.9814 25.2695H31.2666ZM31.249 18.8691C31.9734 18.8692 32.5613 19.4556 32.5615 20.1816C32.5615 20.9061 31.9735 21.4941 31.249 21.4941H16.8115C16.087 21.4941 15.499 20.9061 15.499 20.1816C15.4992 19.4556 16.0871 18.8691 16.8115 18.8691H31.249Z" fill="white"/>
</g>
<defs>
<clipPath id="clip0_1113_1525">
<rect width="54" height="54" rx="27" fill="white"/>
</clipPath>
</defs>
</svg>
